<svg width="178" height="167" viewBox="0 0 178 167" fill="none" xmlns="http://www.w3.org/2000/svg">
<g clip-path="url(#clip0_566_18103)">
<rect width="177" height="166" transform="translate(0.964844 0.480469)" fill="white"/>
<rect x="25.4648" y="19.4805" width="128" height="128" rx="64" fill="url(#paint0_linear_566_18103)"/>
<path d="M60.6415 58.8259C61.5351 58.8259 62.2595 58.1015 62.2595 57.2079C62.2595 56.3143 61.5351 55.5898 60.6415 55.5898C59.7479 55.5898 59.0234 56.3143 59.0234 57.2079C59.0234 58.1015 59.7479 58.8259 60.6415 58.8259Z" fill="#ED1B24"/>
<path fill-rule="evenodd" clip-rule="evenodd" d="M60.4029 61.3699C60.2973 61.7245 60.2337 62.0903 60.2134 62.4597C60.2134 62.4736 60.2118 62.4875 60.2101 62.5022C60.2086 62.5157 60.207 62.5298 60.2064 62.5452C60.1848 63.0139 60.2697 63.4814 60.4549 63.9125C60.46 63.9253 60.4652 63.9381 60.4704 63.9508C60.5216 64.4232 60.6422 64.9261 60.8433 65.4611C61.6904 67.4016 64.0377 69.7605 72.5798 71.5172C72.5798 71.5172 70.5126 70.6597 68.3997 69.2315C68.5416 69.2761 68.6837 69.3203 68.8259 69.3641C69.7771 69.6577 70.7444 69.9547 71.706 70.1026C68.7414 68.8177 65.9062 67.2792 64.2105 64.6894C63.3462 62.3723 64.3241 59.6761 69.5887 56.948C69.5887 56.948 67.7256 57.1831 65.681 57.9304C66.3684 57.3612 67.1106 56.8614 67.8967 56.4383C68.1267 56.3147 68.3555 56.1898 68.5717 56.0535C66.3307 55.9934 64.5693 56.9549 63.1628 57.9801C62.8854 58.187 62.6127 58.3915 62.3538 58.6227C61.7753 59.1145 61.2767 59.6931 60.8756 60.3378C60.6797 60.663 60.5212 61.0092 60.4029 61.3699ZM61.297 65.346C61.7932 66.4349 62.6744 67.3309 64.0631 68.161C65.2986 68.9006 66.9467 69.5756 68.9797 70.1615C68.3121 69.7499 67.6118 69.2747 66.9429 68.744C66.2869 68.5071 65.6409 68.2444 65.012 67.9356C64.3286 67.6112 63.6637 67.2489 63.0206 66.8504C62.4681 66.5009 61.9631 66.0813 61.5182 65.6022C61.4418 65.519 61.368 65.4335 61.297 65.346ZM63.4699 63.2262C63.2733 62.5644 63.2482 61.8604 63.4009 61.1815C63.573 60.4683 63.905 59.8036 64.3717 59.2375C64.3751 59.2333 64.3782 59.2292 64.3814 59.225C64.387 59.2178 64.3924 59.2106 64.3983 59.204C64.5059 59.0737 64.6171 58.9464 64.7316 58.8223C65.25 58.5832 65.7653 58.3864 66.2371 58.2274C66.4682 58.1465 66.6994 58.0737 66.9305 58.0066C64.6242 59.6388 63.4632 61.3875 63.4699 63.2262Z" fill="#006CB7"/>
<path fill-rule="evenodd" clip-rule="evenodd" d="M105.274 67.9339H108.439L105.259 63.0784L108.316 59.3259H105.212L102.791 62.4077H102.668V56.457H99.9273V67.9339H102.668V65.3491L103.222 64.6785L105.274 67.9339ZM74.2879 62.9741V67.8833H71.5469V59.2752H74.1522V60.8532H74.2484C74.426 60.3425 74.7693 59.9059 75.2236 59.6129C75.7141 59.3038 76.2852 59.1467 76.8648 59.1616C77.4184 59.1479 77.9649 59.2889 78.4428 59.5687C78.8899 59.8399 79.251 60.2322 79.4843 60.7002C79.7425 61.2269 79.8687 61.8085 79.852 62.3949V67.8833H77.1109V62.9346C77.1388 62.5318 77.0111 62.1337 76.7543 61.8221C76.6241 61.6854 76.4659 61.5786 76.2904 61.5088C76.115 61.4391 75.9266 61.4082 75.7381 61.4181C75.4729 61.4126 75.211 61.4774 74.9791 61.6059C74.7604 61.729 74.5831 61.9141 74.4694 62.1377C74.3452 62.3988 74.2831 62.685 74.2879 62.9741ZM83.9581 68.0397C83.4575 68.0498 82.9603 67.9552 82.4984 67.762C82.0851 67.59 81.7332 67.2974 81.4885 66.9225C81.2291 66.4955 81.1013 66.0015 81.1208 65.5023C81.1082 65.0846 81.1948 64.6698 81.3733 64.292C81.5352 63.9711 81.7743 63.6956 82.0692 63.4903C82.3794 63.2754 82.7242 63.1153 83.0886 63.0169C83.4948 62.9101 83.91 62.8414 84.3289 62.8118C84.8181 62.7676 85.2126 62.7187 85.5109 62.6698C85.7408 62.6439 85.9628 62.5703 86.1626 62.4536C86.2281 62.4086 86.2812 62.3479 86.317 62.277C86.3529 62.2062 86.3703 62.1274 86.3677 62.048V62.0196C86.3743 61.8918 86.3503 61.7642 86.2976 61.6475C86.2449 61.5309 86.165 61.4285 86.0647 61.349C85.8354 61.1846 85.5576 61.1018 85.2757 61.1138C84.9648 61.0975 84.6566 61.1798 84.3952 61.349C84.1763 61.5033 84.0253 61.7362 83.9739 61.9991L81.4491 61.9092C81.5186 61.3996 81.718 60.9165 82.0282 60.5063C82.3651 60.0739 82.8097 59.7376 83.3174 59.5311C83.9443 59.279 84.6161 59.1577 85.2915 59.1745C85.804 59.1697 86.3148 59.235 86.8096 59.3686C87.2425 59.4835 87.6521 59.6731 88.0199 59.9288C88.3534 60.1612 88.6271 60.4695 88.8184 60.8282C89.0127 61.2039 89.1103 61.622 89.1024 62.0449V67.8946H86.5239V66.6953H86.4577C86.3114 66.9774 86.1121 67.2287 85.8707 67.4354C85.6258 67.6412 85.3419 67.7952 85.0359 67.8882C84.6865 67.9936 84.323 68.0447 83.9581 68.0397ZM84.8023 66.2408C85.079 66.2453 85.3528 66.1837 85.6008 66.0609C85.8304 65.9485 86.0264 65.7776 86.1689 65.5654C86.3113 65.3487 86.385 65.0941 86.3803 64.8348V64.0174C86.2897 64.0631 86.1952 64.1006 86.0979 64.1294C85.9874 64.1626 85.8675 64.1941 85.7365 64.2241C85.6055 64.2541 85.4714 64.2793 85.3325 64.303L84.9349 64.3645C84.7078 64.3968 84.4863 64.4605 84.2769 64.5539C84.1115 64.6269 83.9683 64.7423 83.8618 64.8884C83.7652 65.0312 83.7155 65.2006 83.7198 65.3729C83.7127 65.498 83.7368 65.6229 83.79 65.7364C83.8431 65.8499 83.9237 65.9484 84.0244 66.023C84.2532 66.178 84.5263 66.2545 84.8023 66.2408ZM95.9269 59.2977V64.1895C95.9384 64.4861 95.8732 64.7807 95.7376 65.0448C95.619 65.2686 95.4381 65.4533 95.2168 65.5766C94.9905 65.7038 94.7348 65.7697 94.4751 65.7675C94.2898 65.7759 94.105 65.7433 93.9337 65.6721C93.7624 65.6009 93.6089 65.4929 93.4842 65.3557C93.2271 65.0466 93.0948 64.6526 93.1133 64.251V59.2977H90.3739V64.7891C90.3628 65.3779 90.4915 65.9609 90.7495 66.4902C90.9806 66.9578 91.3402 67.3497 91.7862 67.6201C92.2545 67.8949 92.7899 68.0342 93.3327 68.0225C93.9186 68.0401 94.496 67.8788 94.988 67.5601C95.4393 67.2596 95.7805 66.8204 95.9601 66.3088H96.05V67.9105H98.6616V59.2977H95.9269ZM109.687 59.3274V67.9355H112.427V63.2614C112.42 62.9471 112.496 62.6367 112.649 62.3619C112.794 62.1096 113.005 61.9021 113.26 61.7623C113.528 61.6165 113.83 61.5426 114.136 61.5477C114.324 61.549 114.512 61.5622 114.699 61.5871C114.873 61.6051 115.045 61.6405 115.212 61.6929V59.3274C115.089 59.2919 114.963 59.2666 114.836 59.2517C114.706 59.2349 114.576 59.2265 114.445 59.2264C113.996 59.2187 113.559 59.3658 113.206 59.643C112.821 59.9705 112.552 60.4131 112.438 60.9054H112.349V59.3274H109.687ZM116.509 67.9483V59.3402H119.248V67.9483H116.509ZM116.511 56.4979H119.249V58.4405H116.511V56.4979Z" fill="#53A9DC"/>
<path d="M40.4952 85.7522L44.6974 88.0228C43.918 89.0846 42.9408 89.9375 41.766 90.5814C40.5912 91.2253 39.309 91.5472 37.9196 91.5472C36.3607 91.5472 34.9373 91.1462 33.6495 90.3442C32.373 89.5421 31.3507 88.469 30.5826 87.1247C29.8257 85.7691 29.4473 84.2724 29.4473 82.6344C29.4473 81.3918 29.6675 80.2339 30.1081 79.1607C30.5487 78.0763 31.153 77.1274 31.9212 76.314C32.7006 75.4894 33.6043 74.8455 34.6323 74.3823C35.6603 73.9192 36.7561 73.6876 37.9196 73.6876C39.309 73.6876 40.5912 74.0096 41.766 74.6534C42.9408 75.2973 43.918 76.1615 44.6974 77.246L40.4952 79.5166C40.145 79.1438 39.744 78.8614 39.2921 78.6693C38.8515 78.466 38.394 78.3643 37.9196 78.3643C37.1966 78.3643 36.5471 78.562 35.971 78.9574C35.4061 79.3528 34.9543 79.878 34.6154 80.5332C34.2878 81.1771 34.124 81.8775 34.124 82.6344C34.124 83.3799 34.2934 84.0747 34.6323 84.7186C34.9712 85.3625 35.4231 85.8821 35.9879 86.2775C36.564 86.6728 37.2079 86.8705 37.9196 86.8705C38.4053 86.8705 38.8685 86.7689 39.309 86.5655C39.7496 86.3622 40.145 86.0911 40.4952 85.7522Z" fill="#EC6C3D"/>
<path d="M66.9849 91.1067V74.1621H71.6617V75.416C72.2378 74.8737 72.9043 74.4501 73.6611 74.1451C74.418 73.8401 75.22 73.6876 76.0673 73.6876C77.2195 73.6876 78.2757 73.9531 79.2359 74.484C80.2074 75.0149 80.9868 75.721 81.5743 76.6021C82.173 75.721 82.9524 75.0149 83.9126 74.484C84.8728 73.9531 85.9234 73.6876 87.0643 73.6876C88.2956 73.6876 89.4083 73.987 90.4024 74.5857C91.4078 75.1844 92.2098 75.9864 92.8086 76.9918C93.4073 77.9859 93.7066 79.0986 93.7066 80.3299V91.1067H89.0299V81.6177C89.0299 81.0303 88.883 80.4993 88.5893 80.0249C88.3069 79.5392 87.9285 79.1551 87.4541 78.8727C86.9796 78.579 86.4487 78.4321 85.8613 78.4321C85.2738 78.4321 84.7373 78.5733 84.2515 78.8557C83.7771 79.1381 83.393 79.5222 83.0993 80.008C82.8169 80.4824 82.6757 81.019 82.6757 81.6177V91.1067H77.9989V81.6177C77.9989 81.019 77.8577 80.4824 77.5753 80.008C77.2929 79.5222 76.9088 79.1381 76.4231 78.8557C75.9486 78.5733 75.4177 78.4321 74.8303 78.4321C74.2542 78.4321 73.7232 78.579 73.2375 78.8727C72.7631 79.1551 72.379 79.5392 72.0853 80.0249C71.8029 80.4993 71.6617 81.0303 71.6617 81.6177V91.1067H66.9849Z" fill="#EC6C3D"/>
<path d="M101.439 97.3717H96.7625V74.1621H101.439V75.9921C101.981 75.3256 102.625 74.7834 103.371 74.3654C104.116 73.9361 104.986 73.7215 105.98 73.7215C107.212 73.7215 108.364 73.9531 109.437 74.4162C110.522 74.8794 111.47 75.5233 112.284 76.3479C113.097 77.1613 113.735 78.1045 114.199 79.1777C114.662 80.2508 114.893 81.4031 114.893 82.6344C114.893 83.8657 114.662 85.0236 114.199 86.108C113.735 87.1925 113.097 88.147 112.284 88.9717C111.47 89.785 110.522 90.4233 109.437 90.8864C108.364 91.3496 107.212 91.5811 105.98 91.5811C104.986 91.5811 104.116 91.3665 103.371 90.9372C102.625 90.508 101.981 89.9657 101.439 89.3106V97.3717ZM105.913 78.2118C105.144 78.2118 104.45 78.4152 103.828 78.8218C103.218 79.2172 102.733 79.7481 102.371 80.4146C102.021 81.0811 101.846 81.821 101.846 82.6344C101.846 83.4477 102.021 84.1933 102.371 84.8711C102.733 85.5376 103.218 86.0685 103.828 86.4639C104.45 86.8592 105.144 87.0569 105.913 87.0569C106.681 87.0569 107.381 86.8592 108.014 86.4639C108.658 86.0685 109.166 85.5376 109.539 84.8711C109.923 84.2046 110.115 83.459 110.115 82.6344C110.115 81.8323 109.928 81.0981 109.556 80.4316C109.183 79.7538 108.675 79.2172 108.031 78.8218C107.398 78.4152 106.692 78.2118 105.913 78.2118Z" fill="#EC6C3D"/>
<path d="M117.298 84.905V74.1621H121.975V83.6172C121.975 84.2159 122.116 84.7581 122.399 85.2438C122.692 85.7183 123.082 86.0967 123.568 86.3791C124.054 86.6615 124.585 86.8028 125.161 86.8028C125.748 86.8028 126.285 86.6615 126.77 86.3791C127.256 86.0967 127.64 85.7183 127.923 85.2438C128.205 84.7581 128.346 84.2159 128.346 83.6172V74.1621H133.023L133.04 91.1067H128.363L128.346 89.8189C127.781 90.3611 127.115 90.7847 126.347 91.0897C125.59 91.3947 124.788 91.5472 123.941 91.5472C122.721 91.5472 121.608 91.2479 120.603 90.6492C119.597 90.0505 118.795 89.2541 118.196 88.26C117.598 87.2546 117.298 86.1363 117.298 84.905Z" fill="#EC6C3D"/>
<path d="M141.814 91.4117C140.944 91.3439 140.108 91.1632 139.306 90.8695C138.504 90.5645 137.787 90.1578 137.154 89.6494C136.533 89.1298 136.047 88.5085 135.697 87.7855L139.628 86.0911C139.753 86.2718 139.939 86.4695 140.188 86.6841C140.436 86.8875 140.735 87.0682 141.086 87.2264C141.447 87.3845 141.865 87.4636 142.34 87.4636C142.69 87.4636 143.029 87.4241 143.356 87.345C143.684 87.2546 143.949 87.1134 144.153 86.9214C144.356 86.718 144.458 86.4526 144.458 86.125C144.458 85.7635 144.328 85.4867 144.068 85.2947C143.808 85.1026 143.492 84.9614 143.119 84.8711C142.757 84.7694 142.407 84.6847 142.068 84.6169C141.029 84.4361 140.046 84.1142 139.12 83.651C138.205 83.1766 137.459 82.5666 136.883 81.821C136.307 81.0755 136.019 80.183 136.019 79.1438C136.019 78.0028 136.319 77.02 136.917 76.1954C137.516 75.3595 138.295 74.7156 139.256 74.2637C140.216 73.8119 141.255 73.5859 142.373 73.5859C143.695 73.5859 144.921 73.8627 146.05 74.4162C147.18 74.9697 148.089 75.7492 148.778 76.7546L145.085 78.9404C144.938 78.7258 144.746 78.5225 144.508 78.3304C144.282 78.1271 144.017 77.9577 143.712 77.8221C143.418 77.6752 143.102 77.5905 142.763 77.5679C142.323 77.534 141.922 77.5623 141.56 77.6526C141.199 77.7317 140.911 77.8842 140.696 78.1102C140.493 78.3361 140.391 78.6411 140.391 79.0252C140.391 79.3979 140.555 79.6747 140.882 79.8555C141.21 80.0249 141.588 80.1548 142.018 80.2452C142.447 80.3243 142.825 80.4203 143.153 80.5332C144.136 80.8495 145.056 81.2562 145.915 81.7532C146.785 82.239 147.485 82.8377 148.016 83.5494C148.547 84.2611 148.795 85.097 148.762 86.0572C148.762 87.1755 148.428 88.1583 147.762 89.0056C147.095 89.8415 146.231 90.4797 145.169 90.9203C144.119 91.3496 143 91.5134 141.814 91.4117Z" fill="#EC6C3D"/>
<path d="M54.0527 91.3727C50.125 91.3727 45.9375 88.4512 45.9375 82.6082C45.9375 76.7652 50.125 73.8438 54.0527 73.8438C57.0716 73.8438 59.0193 75.4993 59.4413 76.4406H59.5387V74.1684H63.8884V91.0481H59.5387V88.7758H59.4413C59.0193 89.7172 57.0716 91.3727 54.0527 91.3727ZM50.2223 82.6082C50.2223 85.7569 52.4946 87.4774 54.9292 87.4774C57.3638 87.4774 59.636 85.7894 59.636 82.6082C59.636 79.427 57.3638 77.7391 54.9292 77.7391C52.4946 77.7391 50.2223 79.4595 50.2223 82.6082Z" fill="#EC6C3D"/>
<rect x="200.57" y="15.4805" width="16" height="100" rx="8" transform="rotate(31.7391 200.57 15.4805)" fill="white" fill-opacity="0.87"/>
</g>
<defs>
<linearGradient id="paint0_linear_566_18103" x1="89.4648" y1="19.4805" x2="89.4648" y2="147.48" gradientUnits="userSpaceOnUse">
<stop stop-color="#EC6C3D" stop-opacity="0.06"/>
<stop offset="1" stop-color="#ED6D3E" stop-opacity="0"/>
</linearGradient>
<clipPath id="clip0_566_18103">
<rect width="177" height="166" fill="white" transform="translate(0.964844 0.480469)"/>
</clipPath>
</defs>
</svg>
