<svg width="16" height="16" viewBox="0 0 16 16" fill="none" xmlns="http://www.w3.org/2000/svg">
<path d="M12.9774 3.0222H11.5552V1.59998H4.44405V3.0222H3.02183C2.23961 3.0222 1.59961 3.6622 1.59961 4.44442V5.15553C1.59961 6.96886 2.96494 8.44798 4.72139 8.66842C5.16939 9.73509 6.12939 10.5386 7.2885 10.7733V12.9778H4.44405V14.4H11.5552V12.9778H8.71072V10.7733C9.86983 10.5386 10.8298 9.73509 11.2778 8.66842C13.0343 8.44798 14.3996 6.96886 14.3996 5.15553V4.44442C14.3996 3.6622 13.7596 3.0222 12.9774 3.0222ZM3.02183 5.15553V4.44442H4.44405V7.16086C3.61916 6.8622 3.02183 6.07998 3.02183 5.15553ZM7.99961 9.4222C6.82628 9.4222 5.86628 8.4622 5.86628 7.28886V3.0222H10.1329V7.28886C10.1329 8.4622 9.17294 9.4222 7.99961 9.4222ZM12.9774 5.15553C12.9774 6.07998 12.3801 6.8622 11.5552 7.16086V4.44442H12.9774V5.15553Z" fill="#8951FF"/>
</svg>
